<?xml version="1.0" encoding="UTF-8" standalone="no"?>
<svg
   width="28"
   height="28"
   version="1.1"
   id="svg18"
   sodipodi:docname="shuffleBright.svg"
   inkscape:version="1.2-dev (e39d6ed, 2021-04-08)"
   xmlns:inkscape="http://www.inkscape.org/namespaces/inkscape"
   xmlns:sodipodi="http://sodipodi.sourceforge.net/DTD/sodipodi-0.dtd"
   xmlns="http://www.w3.org/2000/svg"
   xmlns:svg="http://www.w3.org/2000/svg">
  <defs
     id="defs22" />
  <sodipodi:namedview
     id="namedview20"
     pagecolor="#ffffff"
     bordercolor="#666666"
     borderopacity="1.0"
     objecttolerance="10.0"
     gridtolerance="10.0"
     guidetolerance="10.0"
     inkscape:pageshadow="2"
     inkscape:pageopacity="0.0"
     inkscape:pagecheckerboard="0"
     showgrid="false"
     inkscape:zoom="30.071429"
     inkscape:cx="14.881235"
     inkscape:cy="13.551069"
     inkscape:window-width="1920"
     inkscape:window-height="1027"
     inkscape:window-x="-8"
     inkscape:window-y="-8"
     inkscape:window-maximized="1"
     inkscape:current-layer="svg18" />
  <g
     fill-rule="evenodd"
     id="g6"
     style="fill:#f3b938;fill-opacity:1;stroke:none;stroke-width:0.703822;stroke-opacity:1"
     transform="matrix(1.2939024,0,0,1.5601751,-3.9452841,-6.2283898)">
    <path
       d="m 21.791,19.358 -3.3803,-2.7804 4.1025,-1.5365 z"
       color="#000000"
       stroke-width="0.30833pt"
       style="fill:#f3b938;fill-opacity:1;stroke:none;stroke-opacity:1;-inkscape-stroke:none"
       id="path2" />
    <path
       d="m 22.885,14.59 -5.0508,1.8926 4.1621,3.4219 0.08398,-0.49805 z m -0.74414,0.90234 -0.55273,3.3203 -2.5996,-2.1387 z"
       color="#000000"
       style="fill:#f3b938;fill-opacity:1;stroke:none;stroke-width:0.515446;stroke-opacity:1;-inkscape-stroke:none"
       id="path4" />
  </g>
  <path
     d="M 20.118712,7.3378003 A 1.4172113,1.7088598 0 0 0 18.99413,7.3530423 L 0.5404942,17.293075 1.6979287,20.413424 18.773558,11.213852 21.7758,20.879604 24.429335,19.682045 20.898922,8.3158584 A 1.4172113,1.7088598 0 0 0 20.118026,7.3377066 Z"
     color="#000000"
     fill-rule="evenodd"
     stroke-linejoin="round"
     stroke-miterlimit="4.05"
     style="fill:#f3b938;fill-opacity:1;stroke:none;stroke-width:0.999996;stroke-opacity:1;-inkscape-stroke:none;paint-order:markers fill stroke"
     id="path8" />
  <path
     d="M 25.89081,5.3022399 10.316108,19.92576 6.1083372,9.0259099 4.8851984,9.7145874 9.8105671,22.464181 26.719283,6.5847195 Z"
     color="#000000"
     fill-rule="evenodd"
     stroke-miterlimit="4.05"
     id="path10"
     style="fill:#f3b938;fill-opacity:1;stroke:none;stroke-width:0.999996;stroke-opacity:1" />
  <g
     fill-rule="evenodd"
     id="g16"
     style="fill:#f3b938;fill-opacity:1;stroke:none;stroke-width:0.703822;stroke-opacity:1"
     transform="matrix(1.2939024,0,0,1.5601751,-3.9452841,-6.2283898)">
    <path
       d="M 24.328,7.0624 23.54519,8.994 22.26349,7.3482 Z"
       color="#000000"
       stroke-width="0.146817pt"
       id="path12"
       style="fill:#f3b938;fill-opacity:1;stroke:none;stroke-opacity:1" />
    <path
       d="m 24.547,6.8926 -0.23828,0.03125 -2.3027,0.32031 1.5781,2.0254 z m -0.4375,0.33984 -0.60352,1.4863 -0.98438,-1.2656 z"
       color="#000000"
       id="path14"
       style="fill:#f3b938;fill-opacity:1;stroke:none;stroke-width:0.515446;stroke-opacity:1" />
  </g>
</svg>
